<svg version="1.1" id="Layer_1" xmlns="http://www.w3.org/2000/svg" xmlns:xlink="http://www.w3.org/1999/xlink" x="0px" y="0px"
	 width="100%" viewBox="0 0 476 462" enable-background="new 0 0 476 462" xml:space="preserve">
<path fill="#FFFFFF" opacity="1.000000" stroke="none" 
	d="
M223.000000,463.000000 
	C150.019318,463.000000 77.538597,462.972961 5.058100,463.087311 
	C1.762577,463.092529 0.895439,462.603271 0.898211,459.059998 
	C1.016572,307.767090 1.019283,156.474075 0.889091,5.181177 
	C0.885828,1.388961 1.895439,0.916194 5.316703,0.918263 
	C161.108459,1.012490 316.900269,1.012882 472.692017,0.916264 
	C476.136841,0.914128 477.112366,1.421798 477.109161,5.189895 
	C476.981110,156.316162 476.981293,307.442566 477.104462,458.568848 
	C477.107635,462.472656 476.058075,463.092468 472.433319,463.087494 
	C389.455658,462.973907 306.477814,463.000000 223.000000,463.000000 
z"/>
<path fill="#090909" opacity="1.000000" stroke="none" 
	d="
M195.394287,307.587830 
	C191.794312,324.412659 187.566376,340.722198 186.992111,357.618683 
	C186.884720,360.778625 186.071121,364.033661 188.674408,367.066406 
	C190.262680,368.916718 187.872910,370.308899 186.211960,370.977020 
	C183.456940,372.085236 181.610107,370.830780 181.008011,368.089386 
	C179.891724,363.006989 179.867508,357.856934 180.471680,352.690643 
	C183.376862,327.848724 189.161118,303.603912 195.472153,279.455353 
	C206.867401,235.852615 219.781082,192.710464 234.329437,150.056458 
	C234.735382,148.866272 234.942871,147.608398 234.857590,146.232452 
	C220.875229,169.815887 206.841812,193.284592 192.108841,216.500916 
	C195.846359,218.768204 199.410645,220.854126 202.887436,223.076904 
	C204.286987,223.971664 205.885147,225.218689 204.732681,227.107162 
	C203.638168,228.900665 202.080429,227.446945 200.734207,227.065338 
	C200.574371,227.020035 200.421967,226.949081 200.264679,226.894119 
	C196.247162,225.489716 191.977325,221.247223 188.557266,222.778091 
	C185.223663,224.270233 183.549484,229.515335 181.196457,233.144958 
	C168.158203,253.256775 155.613190,273.696533 141.408096,293.031555 
	C140.131317,294.769409 138.675217,296.392090 137.177567,297.948090 
	C131.223297,304.134369 125.036514,303.189392 120.687126,295.571716 
	C116.001900,287.365784 116.384636,278.605255 117.959503,269.811157 
	C121.653328,249.184662 130.957291,231.812225 148.360336,219.493317 
	C158.290390,212.464249 169.371353,210.514542 181.145828,213.662521 
	C184.884933,214.662186 186.876068,213.952377 188.984726,210.404663 
	C207.090729,179.942291 225.543793,149.686371 243.687531,119.246201 
	C248.995255,110.341309 251.299286,100.119812 255.029556,90.522301 
	C260.152313,77.342148 265.015930,64.061287 270.139679,50.881527 
	C271.185730,48.190815 271.974121,44.404476 275.373016,44.211163 
	C279.091553,43.999668 280.656036,47.654903 282.513000,50.410503 
	C284.294556,53.054176 284.276520,55.571835 282.795837,58.346386 
	C276.920441,69.355896 271.491943,80.621468 265.221039,91.398315 
	C255.299561,108.448784 250.914200,127.525520 244.559082,145.861496 
	C227.993683,193.656570 212.604401,241.831024 199.576050,290.730133 
	C198.121567,296.189178 196.872101,301.702881 195.394287,307.587830 
z"/>
<path fill="#0A0A0A" opacity="1.000000" stroke="none" 
	d="
M292.240173,265.121704 
	C281.545624,268.115448 271.158112,270.157501 260.353760,269.105530 
	C244.675735,267.579041 237.547409,256.219330 244.963287,242.430435 
	C254.164124,225.322678 267.838623,213.184799 288.028717,210.324219 
	C291.599060,209.818359 294.811310,210.431824 296.373260,214.129486 
	C297.392334,216.542068 297.059570,218.754898 293.669861,218.075516 
	C286.244324,216.587219 279.875366,219.255539 273.780609,222.870377 
	C265.102417,228.017471 257.264893,234.106796 252.611969,243.432053 
	C247.708862,253.258728 251.505203,260.235107 262.417236,262.042786 
	C271.725739,263.584839 280.637573,261.978333 289.495483,259.439850 
	C324.833496,249.312637 358.061920,234.106277 390.671814,217.406464 
	C392.862122,216.284775 394.957489,214.773743 397.649445,215.021057 
	C398.812958,215.127960 400.277710,215.055023 400.509583,216.368805 
	C400.625732,217.026993 399.636444,218.163239 398.871307,218.647141 
	C394.514526,221.402588 390.204865,224.276566 385.641754,226.654678 
	C355.787384,242.213654 324.955963,255.432922 292.240173,265.121704 
z"/>
<path fill="#171717" opacity="1.000000" stroke="none" 
	d="
M148.272354,422.199127 
	C148.179962,423.628845 148.110138,424.765259 146.796280,424.798340 
	C145.864807,424.821808 145.340912,423.968536 145.334061,423.126221 
	C145.273270,415.646515 145.248947,408.166199 145.276581,400.686340 
	C145.280609,399.593933 145.954468,398.875549 147.165161,398.792755 
	C148.644287,398.691620 149.689362,399.069458 150.209106,400.666107 
	C151.387848,404.287231 152.695877,407.866333 153.956985,411.460541 
	C154.536194,413.111267 155.128784,414.757263 156.155365,417.641968 
	C158.335938,411.547089 160.176453,406.694611 161.784073,401.766144 
	C162.431107,399.782562 163.197952,398.409637 165.540436,398.802368 
	C168.213211,399.250488 167.092575,401.387054 167.120728,402.784790 
	C167.244614,408.934204 167.211395,415.087891 167.144867,421.239075 
	C167.130325,422.583130 167.792496,424.832458 165.576172,424.704620 
	C163.663177,424.594330 164.145081,422.438660 164.132507,421.024078 
	C164.092636,416.538208 164.117767,412.051758 163.325424,407.287048 
	C161.165558,413.110016 159.005676,418.932983 156.466019,425.779816 
	C152.643738,419.646698 152.200378,413.184448 148.277084,408.030945 
	C148.277084,412.612335 148.277084,417.193756 148.272354,422.199127 
z"/>
<path fill="#1B1B1B" opacity="1.000000" stroke="none" 
	d="
M286.948395,420.747986 
	C287.603424,422.276825 288.808136,423.636719 287.219147,424.597809 
	C285.487976,425.644897 285.062103,423.779114 284.407166,422.745605 
	C283.967804,422.052307 283.653229,421.275360 283.323181,420.518250 
	C282.515656,418.665924 281.785156,416.653595 279.135101,417.301178 
	C276.690399,417.898499 277.903442,419.973480 277.666840,421.420502 
	C277.459930,422.685883 277.844482,424.625763 276.288727,424.711761 
	C274.014984,424.837433 274.683136,422.642883 274.667847,421.321503 
	C274.595001,415.020477 274.820007,408.710480 274.559723,402.419403 
	C274.421814,399.085114 275.842224,398.489471 278.664459,398.730255 
	C282.199036,399.031830 286.587524,397.821533 288.095703,402.287750 
	C289.625610,406.818268 290.536896,411.910400 286.595123,415.775635 
	C284.457397,417.871857 286.340240,418.886383 286.948395,420.747986 
z"/>
<path fill="#181818" opacity="1.000000" stroke="none" 
	d="
M369.055084,423.005798 
	C367.450378,418.947876 365.967896,415.259857 364.403290,411.367615 
	C360.266022,413.550446 359.980652,417.158875 360.143158,421.072601 
	C360.198181,422.398254 360.887634,424.669037 358.747925,424.677094 
	C356.751923,424.684631 357.251953,422.484558 357.241943,421.096497 
	C357.196136,414.767670 357.200348,408.438171 357.240875,402.109283 
	C357.248810,400.869446 356.839050,399.043610 358.722748,398.974121 
	C360.851990,398.895630 359.997345,400.845245 360.166718,402.000610 
	C360.286255,402.816040 360.141235,403.666748 360.205597,404.494629 
	C360.291077,405.594421 359.737732,407.072540 361.032227,407.624268 
	C362.795441,408.375763 363.135956,406.457703 363.886414,405.557892 
	C365.481384,403.645660 366.861786,401.556000 368.411957,399.604034 
	C368.948730,398.928131 369.860352,398.622711 370.624634,399.174408 
	C371.461273,399.778351 371.295532,400.823853 370.668213,401.352509 
	C364.043274,406.935577 368.482361,412.636414 370.419098,418.308563 
	C370.954071,419.875275 371.632172,421.400055 372.059601,422.993713 
	C372.272156,423.786377 372.004974,424.722626 370.947021,424.856964 
	C369.915588,424.987885 369.670441,423.991760 369.055084,423.005798 
z"/>
<path fill="#171717" opacity="1.000000" stroke="none" 
	d="
M189.021133,400.473755 
	C190.993393,397.597168 192.208588,398.900482 192.853973,400.985138 
	C195.008850,407.945404 197.025772,414.948639 199.054840,421.947235 
	C199.318115,422.855286 199.781616,424.130310 198.582794,424.566956 
	C196.978973,425.151154 196.524338,423.511169 196.370331,422.561371 
	C195.822128,419.179932 194.195160,418.114044 190.653748,418.061279 
	C186.870331,418.004944 186.310272,420.052307 185.629318,422.765320 
	C185.382523,423.748596 184.976105,425.358704 183.399460,424.809265 
	C181.845993,424.267914 182.582581,422.877045 182.882828,421.823883 
	C184.880920,414.815369 186.914612,407.817047 189.021133,400.473755 
z"/>
<path fill="#131313" opacity="1.000000" stroke="none" 
	d="
M250.069794,413.068665 
	C247.926849,415.337982 249.165710,417.888733 248.861649,420.278442 
	C248.635529,422.055634 249.970047,421.969940 251.166580,421.964478 
	C252.829834,421.956879 254.493164,421.970062 256.156464,421.968719 
	C257.381958,421.967743 258.686462,422.165405 258.574127,423.675415 
	C258.490997,424.792450 257.335663,425.091370 256.247589,425.028931 
	C256.081970,425.019440 255.914154,425.021698 255.748917,425.036255 
	C245.797409,425.911194 245.797287,425.911407 245.797592,415.834137 
	C245.797714,411.176849 245.902008,406.516357 245.756378,401.863647 
	C245.680420,399.436554 246.590500,398.600372 248.944122,398.750885 
	C251.263275,398.899139 253.599747,398.756927 255.927780,398.794403 
	C257.036072,398.812256 258.651703,398.528015 258.558746,400.193146 
	C258.478943,401.622711 256.915344,401.493439 255.794525,401.563171 
	C254.965973,401.614655 254.117096,401.678925 253.302811,401.561096 
	C250.065933,401.092651 248.632935,401.942596 248.683929,405.704803 
	C248.731079,409.184265 249.570374,410.498138 253.101105,410.032196 
	C254.385757,409.862640 256.683197,409.215118 256.802216,411.287415 
	C256.955170,413.950134 254.452713,412.766113 253.026199,413.011322 
	C252.218140,413.150208 251.367142,413.039398 250.069794,413.068665 
z"/>
<path fill="#171717" opacity="1.000000" stroke="none" 
	d="
M324.631592,403.055328 
	C328.538177,397.272461 337.518555,396.880981 340.263336,402.003052 
	C340.900421,403.191986 341.661957,404.655945 340.342560,405.621552 
	C338.568054,406.920166 338.354004,405.085327 337.679993,403.977142 
	C335.997223,401.210175 333.282837,401.324585 330.584015,401.873291 
	C327.764984,402.446442 327.023621,404.543945 327.041321,407.117523 
	C327.061981,410.116425 327.072235,413.115906 327.036682,416.114532 
	C327.002747,418.977936 327.369080,421.651520 330.925354,421.982147 
	C334.130829,422.280212 337.484131,422.498779 338.177612,418.016602 
	C338.361633,416.827301 338.650146,415.515808 340.285370,415.982086 
	C341.556580,416.344604 341.197937,417.595886 341.127838,418.529633 
	C340.792908,422.991699 338.169067,424.887817 333.878845,425.059753 
	C327.651428,425.309265 324.433472,423.362946 324.183044,418.380798 
	C323.933533,413.416595 323.582794,408.403351 324.631592,403.055328 
z"/>
<path fill="#151515" opacity="1.000000" stroke="none" 
	d="
M230.236343,399.536194 
	C228.992798,407.689819 225.995117,415.080841 223.945496,422.740723 
	C223.642303,423.873840 223.204239,425.088348 221.721725,424.969635 
	C220.579803,424.878296 220.187790,423.911560 219.899078,422.895599 
	C217.906784,415.884705 215.872986,408.885559 213.886459,401.873016 
	C213.586380,400.813721 212.915436,399.376648 214.579529,398.985352 
	C216.174332,398.610352 216.333374,400.260071 216.640030,401.258881 
	C218.270309,406.568878 219.796097,411.910950 222.294037,417.356171 
	C223.854523,412.408203 225.338043,407.433777 227.023972,402.528931 
	C227.509155,401.117340 226.982315,398.425537 230.236343,399.536194 
z"/>
<path fill="#171717" opacity="1.000000" stroke="none" 
	d="
M305.116821,404.200348 
	C305.119873,402.890930 305.099457,402.057037 305.131378,401.225128 
	C305.178314,400.001038 305.366241,398.735931 307.006531,398.981781 
	C308.371033,399.186279 308.088226,400.465485 308.092194,401.388611 
	C308.122162,408.385895 308.127716,415.383453 308.087585,422.380615 
	C308.081482,423.446350 308.395935,425.051453 306.599518,424.901825 
	C305.081238,424.775421 305.128693,423.339020 305.126160,422.170258 
	C305.113495,416.339081 305.118195,410.507935 305.116821,404.200348 
z"/>
<path fill="#FBFBFB" opacity="1.000000" stroke="none" 
	d="
M161.014801,254.006454 
	C152.556305,266.576050 143.947174,278.599304 134.882355,290.284698 
	C133.373703,292.229492 131.987549,295.879425 129.036652,294.717621 
	C126.381027,293.672089 126.353065,290.000214 126.162056,287.229462 
	C124.837486,268.015350 130.905106,251.231812 143.248428,236.650284 
	C151.357803,227.070419 161.102432,220.290161 174.193542,219.748978 
	C175.516144,219.694275 176.846115,219.715927 178.168411,219.784256 
	C179.440674,219.849976 180.707397,220.022232 182.599731,220.209259 
	C175.718689,232.049744 168.713623,243.032974 161.014801,254.006454 
z"/>
<path fill="#FCFCFC" opacity="1.000000" stroke="none" 
	d="
M285.955048,407.085571 
	C285.792969,409.310303 286.496887,411.265442 285.203888,412.815948 
	C283.623138,414.711426 281.286499,414.483002 279.226227,414.282166 
	C276.622131,414.028259 277.887115,411.744843 277.669739,410.312866 
	C277.497650,409.179626 277.459564,407.966522 277.671478,406.847504 
	C278.054016,404.827515 275.998932,401.539886 280.533142,401.550323 
	C284.134674,401.558563 286.367798,402.570251 285.955048,407.085571 
z"/>
<path fill="#ECECEC" opacity="1.000000" stroke="none" 
	d="
M189.724350,408.882385 
	C190.026917,407.881134 190.005356,406.991577 190.423172,406.666199 
	C191.510880,405.819122 191.700058,406.946228 191.913208,407.643036 
	C192.628250,409.980560 193.289948,412.334381 193.980911,414.712402 
	C187.748306,415.520203 187.748306,415.520203 189.724350,408.882385 
z"/>
</svg>