<svg version="1.1" id="Layer_1" xmlns="http://www.w3.org/2000/svg" xmlns:xlink="http://www.w3.org/1999/xlink" x="0px" y="0px"
	 width="100%" viewBox="0 0 476 462" enable-background="new 0 0 476 462" xml:space="preserve">
<path fill="#000000" opacity="1.000000" stroke="none" 
	d="
M473.267517,463.000000 
	C316.910187,463.000000 161.081696,462.984558 5.253292,463.096130 
	C1.656023,463.098694 0.899653,462.369049 0.902376,458.753418 
	C1.016219,307.591522 1.015220,156.429550 0.906945,5.267665 
	C0.904396,1.709667 1.577162,0.896626 5.232213,0.899371 
	C161.060608,1.016400 316.889099,1.014088 472.717529,0.910259 
	C476.235168,0.907915 477.106750,1.521618 477.103790,5.217411 
	C476.982391,156.379272 477.000977,307.541260 476.990082,458.703217 
	C476.989929,460.872314 478.039398,463.935059 473.267517,463.000000 
z"/>
<path fill="#616161" opacity="1.000000" stroke="none" 
	d="
M357.264618,423.965759 
	C357.067078,415.682281 357.067078,407.758026 357.067078,399.833771 
	C357.677490,407.998383 358.658234,416.156311 357.264618,423.965759 
z"/>
<path fill="#454545" opacity="1.000000" stroke="none" 
	d="
M305.010986,419.651367 
	C305.011749,412.729431 305.011749,406.262024 305.011749,399.794617 
	C305.243408,399.794769 305.475037,399.794952 305.706696,399.795105 
	C305.706696,407.794556 305.706696,415.794006 305.706696,424.005035 
	C304.451172,422.758453 305.294861,421.326050 305.010986,419.651367 
z"/>
<path fill="#C5C5C5" opacity="1.000000" stroke="none" 
	d="
M245.531006,399.111755 
	C245.901474,407.416138 245.901474,415.928833 245.901474,424.441498 
	C245.654495,424.441010 245.407516,424.440552 245.160538,424.440063 
	C245.160538,416.066742 245.160538,407.693390 245.531006,399.111755 
z"/>
<path fill="#D0D0D0" opacity="1.000000" stroke="none" 
	d="
M167.975342,400.629333 
	C167.982285,408.477112 167.982285,415.889038 167.982285,423.300934 
	C167.703506,423.302979 167.424744,423.305054 167.145966,423.307098 
	C167.145966,415.533356 167.144516,407.759644 167.158051,399.985931 
	C167.158279,399.851532 167.339523,399.717468 167.436310,399.583252 
	C167.613678,399.786652 167.791046,399.990021 167.975342,400.629333 
z"/>
<path fill="#616161" opacity="1.000000" stroke="none" 
	d="
M145.983887,409.092712 
	C145.983292,414.502289 145.983292,419.428314 145.983292,424.354309 
	C145.747269,424.352203 145.511246,424.350128 145.275223,424.348022 
	C145.275223,416.497284 145.275223,408.646576 145.275223,400.795837 
	C145.511642,400.793427 145.748077,400.791016 145.984497,400.788635 
	C145.984497,403.395447 145.984497,406.002289 145.983887,409.092712 
z"/>
<path fill="#A4A4A4" opacity="1.000000" stroke="none" 
	d="
M273.999054,402.610931 
	C274.316193,402.022888 274.607880,399.275208 274.787109,401.796539 
	C275.315216,409.224884 274.975586,416.714905 273.996887,424.202820 
	C273.996887,417.149506 273.996887,410.096191 273.999054,402.610931 
z"/>
<path fill="#E4E4E4" opacity="1.000000" stroke="none" 
	d="
M308.010254,422.307007 
	C307.990936,414.815277 307.990936,407.754181 307.990936,400.693115 
	C308.276031,400.690643 308.561096,400.688171 308.846191,400.685669 
	C308.846191,408.102325 308.847687,415.518951 308.834106,422.935577 
	C308.833862,423.069519 308.652893,423.203094 308.556213,423.336823 
	C308.380646,423.137115 308.205109,422.937408 308.010254,422.307007 
z"/>
<path fill="#B1B1B1" opacity="1.000000" stroke="none" 
	d="
M147.990204,412.218109 
	C147.990097,409.837463 147.990097,407.914154 147.990097,405.990875 
	C148.367661,405.992065 148.745239,405.993256 149.122803,405.994446 
	C149.122803,411.801636 149.122803,417.608856 149.122803,423.416046 
	C148.745300,423.421051 148.367798,423.426056 147.990295,423.431061 
	C147.990295,419.845856 147.990295,416.260681 147.990204,412.218109 
z"/>
<path fill="#454545" opacity="1.000000" stroke="none" 
	d="
M164.989334,419.637665 
	C164.931335,421.378021 164.872055,422.672302 164.812790,423.966583 
	C164.540817,423.965790 164.268829,423.964966 163.996857,423.964172 
	C163.996857,417.844330 163.996857,411.724487 163.996857,405.604645 
	C164.327255,405.576904 164.657669,405.549164 164.988068,405.521454 
	C164.988068,410.078156 164.988068,414.634888 164.989334,419.637665 
z"/>
<path fill="#303030" opacity="1.000000" stroke="none" 
	d="
M324.020935,415.539429 
	C324.022339,411.740967 324.022339,408.374115 324.022339,405.007294 
	C324.274323,405.014801 324.526337,405.022308 324.778320,405.029816 
	C324.778320,409.584198 324.778320,414.138611 324.778320,418.756592 
	C323.488159,418.029816 324.212433,416.887115 324.020935,415.539429 
z"/>
<path fill="#454545" opacity="1.000000" stroke="none" 
	d="
M180.026459,357.324463 
	C180.027618,355.932037 180.027618,354.973328 180.027618,354.014648 
	C180.238785,354.010010 180.449966,354.005371 180.661133,354.000702 
	C180.661133,357.765747 180.661133,361.530792 180.661133,365.295837 
	C180.449188,365.302917 180.237228,365.310028 180.025284,365.317108 
	C180.025284,362.797485 180.025284,360.277863 180.026459,357.324463 
z"/>
<path fill="#C5C5C5" opacity="1.000000" stroke="none" 
	d="
M245.965897,398.974548 
	C249.616241,396.622406 253.502594,398.917358 257.202972,397.807587 
	C257.219055,398.224731 257.235138,398.641876 257.251221,399.059021 
	C253.778488,399.059021 250.305740,399.059021 246.367233,398.981232 
	C245.901474,398.903442 245.946671,398.948883 245.965897,398.974548 
z"/>
<path fill="#D0D0D0" opacity="1.000000" stroke="none" 
	d="
M361.047150,407.165039 
	C361.620270,408.064667 361.983673,408.692047 361.279480,409.190796 
	C360.020721,410.082275 360.038727,409.009155 360.032654,408.217438 
	C360.010376,405.294159 360.023773,402.370605 360.995819,399.450104 
	C360.995819,401.886017 360.995819,404.321960 361.047150,407.165039 
z"/>
<path fill="#7A7A7A" opacity="1.000000" stroke="none" 
	d="
M277.680878,413.006531 
	C276.565277,409.813171 277.037048,406.291321 277.910767,402.759247 
	C277.910767,406.066345 277.910767,409.373413 277.680878,413.006531 
z"/>
<path fill="#A4A4A4" opacity="1.000000" stroke="none" 
	d="
M263.281677,269.013092 
	C265.986603,269.041107 268.251465,269.041107 270.516357,269.041107 
	C270.507416,269.273712 270.498444,269.506348 270.489502,269.738953 
	C267.156403,269.738953 263.823303,269.738953 260.490204,269.738953 
	C260.485138,269.551422 260.480072,269.363922 260.475006,269.176392 
	C261.263885,269.112610 262.052734,269.048859 263.281677,269.013092 
z"/>
<path fill="#A4A4A4" opacity="1.000000" stroke="none" 
	d="
M267.048706,262.271057 
	C270.194427,262.093750 272.997131,262.093750 275.799835,262.093750 
	C272.759888,262.997192 269.730988,263.592682 267.048706,262.271057 
z"/>
<path fill="#303030" opacity="1.000000" stroke="none" 
	d="
M288.728088,404.195923 
	C288.900665,406.953796 288.900665,409.392975 288.900665,411.832184 
	C288.314453,409.184052 287.615326,406.544006 288.728088,404.195923 
z"/>
</svg>